<svg viewBox="0 0 100 100" xmlns="http://www.w3.org/2000/svg">
  <path id="pin_outline" d="M50 86 C42.4 75.4 30.6 63.2 25.2 48.6 C20.8 36.1 25.0 25.0 36.2 18.4 C43.0 14.9 57.0 14.9 63.8 18.4 C75.0 25.0 79.2 36.1 74.8 48.6 C69.4 63.2 57.6 75.4 50 86 Z" fill="none" stroke="white" stroke-width="5.7" stroke-linecap="round" stroke-linejoin="round"/>
  <path id="left_horn" d="M30.6 22.2 C26.8 14.2 28.8 6.6 37.2 2.8 C39.4 11.4 43.5 16.4 48.9 18.4 C41.9 17.1 35.4 18.8 30.6 22.2 Z" fill="white"/>
  <path id="right_horn" d="M69.4 22.2 C73.2 14.2 71.2 6.6 62.8 2.8 C60.6 11.4 56.5 16.4 51.1 18.4 C58.1 17.1 64.6 18.8 69.4 22.2 Z" fill="white"/>
  <circle id="red_core" cx="50" cy="41.2" r="7.15" fill="#f42b34"/>
</svg>
